<?xml version="1.0" encoding="UTF-8"?>
<svg xmlns="http://www.w3.org/2000/svg" viewBox="0 0 16 16">
  <path fill="#FFF" d="M1 1h14v14H1V1z"></path>
  <path fill="#999" d="M1 1v14h14V1H1zm1 1h12v12H2V2z"></path>
  <path fill="#666" d="M3 3h10v1H3V3z"></path>
  <path fill="#B9B9B9" d="M3 5h10v1H3V5z"></path>
  <path fill="#59F" d="M7 7h6v6H7V7z"></path>
  <path fill="#FFF" d="M11 12H8l.75-1 .75-1 .75 1 .75 1z"></path>
  <path fill="#FFF" d="M12 12H9.333l.667-.667.667-.666.666.666L12 12z"></path>
  <ellipse fill="#FFF" cx="11.5" cy="9.5" rx=".5" ry=".5"></ellipse>
  <path fill="#B9B9B9" d="M3 7h3v1H3V7zm0 2h3v1H3V9zm0 2h3v1H3v-1z"></path>
</svg>
