<?xml version="1.0" encoding="UTF-8"?>
<svg xmlns="http://www.w3.org/2000/svg" viewBox="0 0 16 16">
  <path fill="#FFF" d="M2 1h8v12H2z"></path>
  <path fill="#CACACA" d="M2 1h8v6H2V1z"></path>
  <path opacity=".5" fill="#FFF" d="M7 6H4l.8-1 .8-1 .8 1L7 6z"></path>
  <path opacity=".5" fill="#FFF" d="M8 6H5.3l.7-.7.7-.7.7.7.6.7z"></path>
  <circle opacity=".5" fill="#FFF" cx="7.5" cy="3.5" r=".5"></circle>
  <path fill="#B9B9B9" d="M4 9h2v1H4zm0-1h4v1H4z"></path>
  <path fill="#999" d="M2 1v12h8V1H2zm7 11H3V2h6v10z"></path>
  <path fill="#FFF" d="M6 3h8v12H6z"></path>
  <path fill="#59F" d="M6 3h8v6H6V3z"></path>
  <path opacity=".5" fill="#FFF" d="M11 8H8l.8-1 .8-1 .8 1 .6 1z"></path>
  <path opacity=".5" fill="#FFF" d="M12 8H9.3l.7-.7.7-.7.7.7.6.7z"></path>
  <circle opacity=".5" fill="#FFF" cx="11.5" cy="5.5" r=".5"></circle>
  <path fill="#B9B9B9" d="M8 11h2v1H8zm0-1h4v1H8z"></path>
  <path fill="#666" d="M6 3v12h8V3H6zm7 11H7V4h6v10z"></path>
</svg>
