<?xml version="1.0" encoding="UTF-8"?>
<svg xmlns="http://www.w3.org/2000/svg" viewBox="0 0 16 16">
  <path fill="#FFF" d="M1 1h14v14H1V1z"></path>
  <path fill="#999" d="M1 1v14h14V1H1zm1 1h12v12H2V2z"></path>
  <path fill="#666" d="M3 3h10v1H3V3z"></path>
  <path fill="#B9B9B9" d="M3 5h10v1H3V5z"></path>
  <path fill="#639" d="M7 7h6v6H7V7z"></path>
  <path fill="#B9B9B9" d="M3 7h3v1H3V7zm0 2h3v1H3V9zm0 2h3v1H3v-1z"></path>
  <path fill="#FFF" d="M9 11.5v-3l1.3.8 1.3.8-1.3.8-1.3.6z"></path>
</svg>
