<?xml version="1.0" encoding="UTF-8"?>
<svg xmlns="http://www.w3.org/2000/svg" xmlns:xlink="http://www.w3.org/1999/xlink" version="1.1" id="Ebene_1" x="0px" y="0px" viewBox="0 0 16 16" xml:space="preserve">
<path fill="#FFFFFF" d="M2,1h12v14H2V1z"></path>
<path fill="#999999" d="M2,1v14h12V1H2z M3,2h10v12H3V2z"></path>
<rect x="4" y="6" fill="#666666" width="2" height="1"></rect>
<rect x="4" y="3" fill="#5599FF" width="2" height="3"></rect>
<rect x="4" y="12" fill="#666666" width="2" height="1"></rect>
<rect x="4" y="9" fill="#5599FF" width="2" height="3"></rect>
<rect x="7" y="6" fill="#666666" width="2" height="1"></rect>
<rect x="7" y="3" fill="#5599FF" width="2" height="3"></rect>
<rect x="7" y="12" fill="#666666" width="2" height="1"></rect>
<rect x="7" y="9" fill="#5599FF" width="2" height="3"></rect>
<rect x="10" y="6" fill="#666666" width="2" height="1"></rect>
<rect x="10" y="3" fill="#5599FF" width="2" height="3"></rect>
<rect x="10" y="12" fill="#666666" width="2" height="1"></rect>
<rect x="10" y="9" fill="#5599FF" width="2" height="3"></rect>
</svg>
