<?xml version="1.0" encoding="UTF-8"?>
<svg xmlns="http://www.w3.org/2000/svg" xmlns:xlink="http://www.w3.org/1999/xlink" version="1.1" x="0px" y="0px" viewBox="0 0 16 16" xml:space="preserve">
<path fill="#FFFFFF" d="M1,1h14v14H1V1z"></path>
<path fill="#999999" d="M1,1v14h14V1H1z M2,2h12v12H2V2z"></path>
<rect x="5" y="9" fill="#B9B9B9" width="6" height="1"></rect>
<rect x="5" y="11" fill="#B9B9B9" width="6" height="1"></rect>
<path fill="#5599FF" d="M9.5,8h-3C6.2,8,6,7.8,6,7.5v-3C6,4.2,6.2,4,6.5,4h3C9.8,4,10,4.2,10,4.5v3C10,7.8,9.8,8,9.5,8z"></path>
<path opacity="0.25" d="M9,5v2H7V5H9 M9.5,4h-3C6.2,4,6,4.2,6,4.5v3C6,7.8,6.2,8,6.5,8h3C9.8,8,10,7.8,10,7.5v-3C10,4.2,9.8,4,9.5,4  L9.5,4z"></path>
</svg>
