<?xml version="1.0" encoding="UTF-8"?>
<svg xmlns="http://www.w3.org/2000/svg" xmlns:xlink="http://www.w3.org/1999/xlink" version="1.1" x="0px" y="0px" viewBox="0 0 16 16" xml:space="preserve">
<rect x="6" y="1" fill="#FFFFFF" width="7" height="4"></rect>
<path fill="#666666" d="M12,2v2H7V2H12 M13,1H6v4h7V1L13,1z"></path>
<rect x="6" y="6" fill="#FFFFFF" width="7" height="4"></rect>
<path fill="#666666" d="M12,7v2H7V7H12 M13,6H6v4h7V6L13,6z"></path>
<rect x="6" y="11" fill="#FFFFFF" width="7" height="4"></rect>
<path fill="#666666" d="M12,12v2H7v-2H12 M13,11H6v4h7V11L13,11z"></path>
<rect x="7" y="2" fill="#5599FF" width="2" height="2"></rect>
<rect x="7" y="7" fill="#5599FF" width="2" height="2"></rect>
<rect x="7" y="12" fill="#5599FF" width="2" height="2"></rect>
<polygon fill="#999999" points="5,3.5 5,2.5 4,2.5 4,1 3,1 3,15 4,15 4,13.5 5,13.5 5,12.5 4,12.5 4,8.5 5,8.5 5,7.5 4,7.5 4,3.5"></polygon>
</svg>
